<?xml version="1.0" standalone="no"?>
<!DOCTYPE svg PUBLIC "-//W3C//DTD SVG 20010904//EN"
 "http://www.w3.org/TR/2001/REC-SVG-20010904/DTD/svg10.dtd">
<svg version="1.0" xmlns="http://www.w3.org/2000/svg"
 width="428.000000pt" height="352.000000pt" viewBox="0 0 428.000000 352.000000"
 preserveAspectRatio="xMidYMid meet">

<g transform="translate(0.000000,352.000000) scale(0.100000,-0.100000)"
fill="#000000" stroke="none">
<path d="M0 1760 l0 -1760 2140 0 2140 0 0 1760 0 1760 -2140 0 -2140 0 0
-1760z m2258 1665 c2 -2 -3 -9 -11 -16 -18 -17 -10 -49 12 -50 10 0 12 -2 3
-6 -7 -3 -21 -22 -32 -42 -18 -36 -21 -37 -72 -38 -29 0 -56 5 -60 11 -6 8
-10 8 -16 -1 -4 -7 -41 -19 -82 -28 -240 -50 -400 -136 -556 -297 -130 -133
-214 -279 -260 -448 -10 -36 -19 -67 -20 -69 -2 -2 -10 4 -19 13 -22 21 -38
11 -24 -15 5 -11 7 -29 4 -40 -6 -17 -4 -19 12 -10 10 5 34 16 53 24 19 9 76
34 125 57 110 51 442 192 585 248 290 114 477 184 490 185 8 0 17 3 20 7 3 4
86 39 185 78 99 39 181 75 183 80 3 10 -111 87 -161 109 -97 43 -301 93 -378
93 -17 0 -9 17 21 49 29 30 48 41 35 21 -3 -5 -1 -10 4 -10 11 0 15 13 12 37
-1 8 5 10 14 7 11 -5 15 1 15 20 0 25 1 25 48 19 26 -3 53 -13 60 -22 9 -11
15 -13 18 -4 3 7 13 9 22 7 53 -17 72 -28 72 -40 0 -17 17 -19 22 -3 8 25 203
-73 326 -166 l61 -46 206 77 c113 43 207 75 209 73 7 -7 -32 -251 -68 -418
l-34 -163 24 -72 c84 -246 88 -530 10 -768 -50 -153 -160 -339 -259 -438 -33
-34 -46 -56 -52 -88 -4 -23 -11 -44 -16 -48 -5 -3 -7 -9 -4 -13 6 -10 -26
-121 -35 -121 -4 0 -7 -14 -7 -30 0 -45 -10 -48 -61 -19 -36 21 -46 32 -44 49
2 17 -2 21 -14 16 -10 -4 -31 7 -57 30 -42 35 -42 35 -49 12 -3 -13 -6 -17 -7
-10 -1 6 -8 12 -17 12 -15 0 -15 -2 0 -25 9 -13 16 -26 16 -28 0 -10 -61 -29
-75 -23 -18 6 -67 -13 -60 -24 3 -4 -26 -17 -63 -29 -64 -20 -91 -25 -192 -37
-25 -2 -57 -6 -72 -8 -16 -3 -30 0 -34 5 -3 5 -11 6 -17 2 -15 -10 -87 -11
-87 -2 0 4 -9 5 -20 2 -11 -3 -27 0 -35 7 -8 7 -15 8 -15 3 0 -20 -150 7 -185
33 -17 13 -18 16 -5 25 11 8 12 12 3 16 -7 2 -13 13 -13 23 0 10 -6 21 -12 24
-10 3 -8 9 5 19 9 8 17 21 17 29 0 18 -27 44 -36 35 -3 -3 -17 -2 -30 3 -26
10 -43 -5 -25 -23 6 -6 11 -19 11 -28 0 -10 7 -25 16 -34 9 -9 17 -28 17 -43
0 -15 2 -21 4 -14 6 17 23 15 23 -2 0 -24 -15 -26 -58 -8 -31 13 -42 24 -47
47 -4 20 -8 26 -14 17 -12 -20 -57 -24 -75 -7 -8 9 -17 15 -18 14 -8 -3 -58
25 -58 33 0 12 24 10 37 -3 8 -8 17 -6 34 10 12 11 19 24 15 28 -4 4 -11 2
-15 -5 -11 -18 -110 -7 -125 14 -7 8 -18 14 -26 12 -9 -2 -14 8 -15 35 -2 48
-15 61 -16 16 0 -28 -2 -30 -9 -14 -5 11 -9 14 -9 7 -1 -18 -51 16 -51 34 0 8
-6 14 -14 14 -8 0 -17 8 -21 18 -3 11 -16 24 -29 30 -30 13 -118 130 -114 151
2 9 11 15 21 13 9 -2 17 2 17 9 0 6 7 9 15 5 11 -4 15 2 15 20 0 16 -5 24 -12
21 -7 -2 -28 5 -46 15 -40 22 -46 23 -38 1 6 -16 6 -16 -12 0 -10 9 -23 17
-29 17 -10 0 -63 107 -63 128 0 5 8 13 18 17 15 7 14 9 -8 14 -16 5 -29 19
-39 44 -13 35 -12 39 6 60 16 17 19 27 12 45 -9 24 -29 22 -29 -4 0 -8 -4 -12
-10 -9 -5 3 -10 22 -10 41 0 24 -5 34 -15 34 -8 0 -23 4 -33 8 -20 10 -103 48
-147 67 -16 7 -56 23 -88 35 -63 25 -71 37 -29 46 15 3 47 16 72 28 25 13 82
38 128 56 88 35 85 31 97 125 4 28 18 93 32 145 108 418 471 764 897 856 117
25 313 36 334 19z m-1453 -1732 c30 -67 32 -64 -71 -120 -76 -41 -140 -90
-131 -100 7 -7 107 29 195 70 35 16 65 27 66 26 2 -2 16 -28 32 -57 34 -62 39
-56 -88 -110 -88 -37 -212 -63 -286 -61 -40 2 -61 -4 -106 -29 -75 -43 -87
-41 -114 13 -12 25 -22 50 -22 55 0 5 31 25 68 44 48 24 76 46 97 76 46 66
146 152 237 203 46 26 86 47 90 47 3 0 18 -26 33 -57z m3064 -99 c135 -69 252
-132 260 -140 13 -12 12 -20 -9 -64 -13 -27 -29 -50 -37 -50 -7 0 -50 19 -96
41 -88 45 -115 54 -191 69 -110 22 -75 -9 129 -112 66 -33 122 -62 124 -64 8
-8 -48 -114 -60 -114 -20 0 -520 261 -525 274 -3 7 7 33 21 59 28 49 38 54
130 59 l40 3 -52 28 c-29 15 -53 30 -53 33 0 15 54 104 63 104 5 0 120 -57
256 -126z m-2684 26 c3 -5 -1 -10 -9 -10 -9 0 -16 5 -16 10 0 6 4 10 9 10 6 0
13 -4 16 -10z m2199 -369 l38 -39 -47 -50 -46 -51 35 -38 35 -38 43 43 c24 23
48 42 54 42 6 0 25 -16 44 -35 l34 -35 -47 -48 -48 -48 55 -60 54 -59 49 48
c27 26 54 47 60 47 13 0 63 -61 63 -76 0 -6 -43 -50 -95 -98 -87 -80 -97 -87
-115 -75 -25 18 -390 416 -390 426 0 6 83 88 185 183 1 0 18 -18 39 -39z
m-2274 -32 c22 -23 40 -49 40 -58 -1 -28 -55 -145 -96 -207 -42 -64 -240 -274
-257 -274 -13 0 -87 70 -87 82 0 4 14 23 31 43 26 29 29 38 19 50 -17 20 -26
19 -64 -10 -18 -14 -36 -25 -39 -25 -13 0 -87 73 -87 85 0 18 157 164 256 238
71 53 196 116 232 117 6 0 30 -19 52 -41z m349 -235 c72 -39 121 -72 121 -81
0 -8 -8 -28 -17 -44 -18 -31 -48 -38 -83 -19 -22 12 -18 17 -160 -242 -56
-103 -97 -168 -106 -168 -18 0 -104 49 -104 59 0 3 36 69 81 146 44 77 96 171
115 209 l35 68 -30 27 -30 26 25 43 c14 23 28 42 29 42 2 0 58 -30 124 -66z
m1575 -42 c21 -43 24 -65 30 -246 4 -110 8 -201 10 -203 2 -2 29 8 61 22 32
14 61 25 66 25 10 0 55 -87 48 -94 -12 -11 -251 -126 -263 -126 -7 0 -23 22
-35 49 -19 45 -21 68 -21 255 0 113 -2 206 -4 206 -2 0 -28 -11 -58 -25 -29
-14 -60 -25 -69 -25 -16 0 -49 58 -49 86 0 16 238 135 253 127 4 -2 18 -25 31
-51z m-1189 -120 c150 -31 185 -60 185 -155 0 -65 -22 -132 -54 -167 -22 -23
-24 -36 -29 -169 -3 -79 -7 -145 -9 -147 -3 -2 -37 4 -113 21 -19 4 -20 9 -11
129 9 121 5 163 -13 152 -9 -6 -35 -116 -46 -197 -10 -70 -13 -73 -79 -59 -32
6 -60 18 -62 25 -3 7 -1 35 4 61 12 59 92 469 98 502 5 27 13 27 129 4z m655
-111 c69 -115 108 -258 127 -453 5 -63 5 -68 -14 -68 -11 0 -40 -3 -65 -6
l-45 -6 -7 46 c-8 51 -17 60 -47 51 -18 -6 -20 -13 -15 -44 8 -53 -4 -64 -72
-69 l-60 -4 -6 48 c-23 172 -25 354 -6 447 23 111 35 123 127 126 42 1 42 1
83 -68z"/>
<path d="M2377 3383 c-4 -3 -7 -13 -7 -22 1 -13 3 -13 11 2 11 19 8 33 -4 20z"/>
<path d="M2503 3304 c-17 -17 -16 -24 1 -24 8 0 16 -5 18 -12 3 -7 7 -5 11 6
5 11 3 15 -5 10 -8 -5 -9 -2 -5 9 8 21 -5 29 -20 11z"/>
<path d="M2156 3301 c-4 -5 3 -7 14 -4 23 6 26 13 6 13 -8 0 -17 -4 -20 -9z"/>
<path d="M2413 3298 c4 -11 2 -18 -6 -18 -16 -1 23 -30 40 -30 7 0 13 7 13 15
0 8 -4 15 -9 15 -5 0 -18 8 -27 18 -17 16 -18 16 -11 0z"/>
<path d="M2572 3285 c2 -12 -2 -19 -9 -17 -8 1 -13 -8 -13 -23 0 -33 28 -33
36 -1 3 14 1 33 -5 43 -11 17 -11 17 -9 -2z"/>
<path d="M2610 3248 c0 -7 11 -18 25 -24 23 -11 24 -11 8 12 -17 26 -33 32
-33 12z"/>
<path d="M2891 3114 c0 -11 3 -14 6 -6 3 7 2 16 -1 19 -3 4 -6 -2 -5 -13z"/>
<path d="M3120 3059 c-52 -22 -255 -105 -450 -185 -195 -80 -374 -154 -397
-165 -24 -10 -49 -19 -56 -19 -7 0 -17 -4 -22 -9 -6 -5 -100 -46 -210 -90
-110 -45 -225 -93 -255 -106 -149 -65 -354 -144 -362 -139 -4 3 -8 1 -8 -5 0
-5 -42 -25 -93 -45 -70 -27 -105 -35 -147 -34 -54 2 -55 1 -52 -24 3 -21 -3
-28 -30 -37 l-33 -12 28 -15 c29 -16 32 -28 17 -70 -9 -24 -9 -25 5 -14 8 7
15 18 15 24 1 34 16 35 85 7 134 -54 162 -70 169 -93 5 -14 9 -18 13 -10 6 16
39 15 71 -2 15 -8 48 -22 75 -32 26 -9 47 -20 47 -24 0 -4 17 -10 38 -14 20
-3 66 -21 102 -39 l65 -32 10 -123 c10 -116 7 -159 -9 -134 -4 6 -16 9 -28 7
-27 -5 -32 -11 -23 -25 5 -8 13 -6 27 7 21 18 21 18 15 -8 -5 -20 -1 -31 19
-48 24 -21 25 -27 22 -102 -2 -43 0 -79 4 -79 4 0 8 -19 10 -42 2 -23 8 -43
14 -45 6 -2 30 11 52 29 23 18 60 47 84 64 142 103 256 187 278 204 14 11 31
20 38 20 27 0 72 -31 72 -50 0 -10 5 -22 11 -26 8 -4 9 1 4 16 -6 19 33 2 250
-109 142 -72 260 -129 263 -126 3 3 18 65 34 137 42 195 89 419 95 448 2 14 7
32 11 40 3 8 6 24 7 35 2 21 31 164 90 435 55 256 145 684 145 693 0 12 -10 9
-110 -34z m-126 -158 c-83 -74 -138 -111 -145 -99 -6 9 -9 7 -9 -9 0 -13 -4
-23 -9 -23 -5 0 -24 -15 -43 -32 -18 -18 -114 -99 -213 -179 -99 -80 -308
-250 -464 -378 -157 -128 -290 -235 -296 -238 -23 -8 -422 147 -441 172 -6 8
-14 12 -17 9 -3 -4 -36 8 -73 25 -39 18 -63 35 -58 40 5 5 31 16 57 26 42 16
50 16 58 4 7 -11 9 -11 9 4 0 15 60 50 105 61 12 3 29 10 180 76 66 28 128 52
138 53 9 1 17 4 17 8 0 4 9 9 21 12 15 4 19 2 15 -9 -3 -8 -1 -14 4 -14 6 0
10 3 10 8 1 22 34 40 221 116 112 46 296 122 409 169 113 46 223 90 245 97 22
7 49 19 60 25 16 10 77 33 105 40 3 1 30 13 60 28 50 24 77 28 54 8z m121 -3
c-2 -7 -36 -159 -76 -338 -39 -179 -76 -328 -82 -331 -5 -4 -7 -14 -4 -22 5
-14 -141 -696 -160 -744 -8 -22 -15 -19 -216 88 -114 61 -207 115 -207 120 0
6 -5 7 -10 4 -10 -6 -250 115 -250 126 0 14 43 59 56 59 8 0 12 5 9 10 -3 6
-2 10 4 10 5 0 12 -6 15 -12 3 -7 3 -2 0 11 -5 21 -3 23 15 18 22 -5 30 8 9
15 -6 2 38 58 98 124 134 147 709 785 753 837 33 37 54 48 46 25z m-274 -195
c-11 -16 -64 -78 -118 -139 -54 -61 -161 -182 -238 -269 -77 -88 -208 -231
-291 -318 -140 -147 -156 -168 -210 -273 -38 -74 -64 -112 -72 -109 -7 3 -10
0 -7 -5 10 -16 -11 -11 -33 8 -18 15 -21 33 -25 159 l-6 142 82 66 c45 36 91
74 102 83 22 19 203 168 550 452 127 103 241 197 255 209 33 27 35 26 11 -6z
m-713 -975 c46 -25 52 -40 24 -60 -29 -20 -111 -89 -164 -137 -27 -25 -48 -38
-48 -30 0 16 34 49 50 49 6 0 10 5 10 11 0 5 -4 7 -10 4 -19 -12 -10 17 32
101 23 46 47 84 53 84 5 0 29 -10 53 -22z m-248 -224 c-14 -35 -17 -30 -14 24
3 61 4 63 14 29 5 -17 5 -39 0 -53z"/>
<path d="M2293 2490 c0 -25 2 -35 4 -22 2 12 2 32 0 45 -2 12 -4 2 -4 -23z"/>
<path d="M1840 2400 c-7 -5 -10 -15 -6 -25 3 -10 9 -15 13 -12 3 4 12 -1 19
-11 12 -16 13 -16 13 3 0 29 -22 55 -39 45z"/>
<path d="M2100 2349 c0 -5 5 -7 10 -4 6 3 10 8 10 11 0 2 -4 4 -10 4 -5 0 -10
-5 -10 -11z"/>
<path d="M1898 2328 c-7 -19 2 -38 18 -38 17 0 17 10 0 33 -10 13 -15 14 -18
5z"/>
<path d="M2970 2490 c0 -5 5 -10 10 -10 6 0 10 5 10 10 0 6 -4 10 -10 10 -5 0
-10 -4 -10 -10z"/>
<path d="M2970 2435 c0 -8 4 -15 10 -15 5 0 7 7 4 15 -4 8 -8 15 -10 15 -2 0
-4 -7 -4 -15z"/>
<path d="M2930 2382 c0 -7 5 -12 10 -12 6 0 10 -7 10 -15 0 -8 5 -15 10 -15
16 0 12 15 -10 35 -11 10 -20 13 -20 7z"/>
<path d="M2695 2249 c-4 -6 -5 -13 -2 -16 7 -7 27 6 27 18 0 12 -17 12 -25 -2z"/>
<path d="M2730 2200 c0 -11 5 -20 10 -20 6 0 10 9 10 20 0 11 -4 20 -10 20 -5
0 -10 -9 -10 -20z"/>
<path d="M2480 2056 c0 -8 4 -17 9 -20 5 -4 7 3 4 14 -6 23 -13 26 -13 6z"/>
<path d="M2367 1786 c-6 -16 19 -30 28 -16 7 11 -2 30 -15 30 -4 0 -10 -6 -13
-14z"/>
<path d="M2646 1713 c-3 -4 -6 -10 -6 -14 0 -10 28 -20 34 -11 5 9 -20 32 -28
25z"/>
<path d="M2480 1680 c-13 -9 -13 -11 0 -19 9 -6 19 -6 25 -1 7 6 16 5 22 -1 8
-8 13 -7 18 1 15 24 -36 39 -65 20z"/>
<path d="M2602 1673 c-15 -6 -6 -23 14 -23 8 0 14 7 14 15 0 15 -6 17 -28 8z"/>
<path d="M2710 1670 c0 -5 5 -10 11 -10 5 0 7 5 4 10 -3 6 -8 10 -11 10 -2 0
-4 -4 -4 -10z"/>
<path d="M2091 2058 c0 -11 -8 -17 -18 -15 -18 2 -23 -3 -23 -26 0 -8 15 -13
40 -14 29 -1 40 2 40 12 0 8 -6 12 -14 9 -10 -4 -16 3 -19 23 -2 15 -5 20 -6
11z"/>
<path d="M2166 2052 c-3 -5 4 -13 15 -20 15 -10 19 -10 19 2 0 15 -27 29 -34
18z"/>
<path d="M1171 2760 c-1 -28 14 -57 21 -44 3 5 -1 23 -8 39 -13 29 -13 29 -13
5z"/>
<path d="M1190 2388 c0 -4 7 -8 15 -8 8 0 15 4 15 8 0 5 -7 9 -15 9 -8 0 -15
-4 -15 -9z"/>
<path d="M1101 2344 c0 -11 3 -14 6 -6 3 7 2 16 -1 19 -3 4 -6 -2 -5 -13z"/>
<path d="M3290 2300 c0 -5 5 -10 10 -10 6 0 10 5 10 10 0 6 -4 10 -10 10 -5 0
-10 -4 -10 -10z"/>
<path d="M3198 2280 c-11 -40 -98 -470 -98 -486 0 -8 7 -14 16 -14 8 0 13 4
10 9 -3 5 8 50 24 99 39 119 62 253 58 344 -2 49 -5 65 -10 48z"/>
<path d="M781 2193 c0 -25 1 -26 9 -8 12 27 12 35 0 35 -5 0 -10 -12 -9 -27z"/>
<path d="M1136 2013 c-12 -12 -6 -25 8 -20 8 3 17 1 20 -6 2 -7 5 -5 5 4 1 17
-22 32 -33 22z"/>
<path d="M1225 1959 c6 -18 4 -20 -14 -14 -26 8 -26 -1 -2 -62 18 -47 18 -49
1 -71 l-19 -23 -3 27 c-4 33 -44 42 -54 12 -3 -10 -10 -18 -15 -18 -6 0 -7 -4
-4 -10 9 -15 25 -12 25 5 0 8 7 15 15 15 20 0 32 -30 15 -40 -10 -6 -9 -9 1
-13 8 -2 26 7 41 20 l26 25 23 -43 c12 -24 37 -68 56 -97 18 -29 31 -57 28
-62 -9 -15 8 -35 30 -35 15 0 21 -8 23 -32 3 -31 22 -48 22 -21 0 7 10 2 23
-12 30 -32 171 -140 183 -140 10 0 10 42 1 130 -15 137 -16 181 -3 171 7 -6
16 -8 19 -4 12 11 8 23 -8 23 -9 0 -20 17 -27 46 -10 37 -20 50 -45 62 -18 9
-33 20 -33 24 0 5 -4 6 -10 3 -5 -3 -10 2 -10 12 0 14 -2 15 -9 4 -7 -11 -33
-4 -135 39 -111 46 -126 56 -126 76 0 13 -5 24 -11 24 -6 0 -8 -9 -4 -21z"/>
<path d="M1713 1805 c0 -22 2 -30 4 -17 2 12 2 30 0 40 -3 9 -5 -1 -4 -23z"/>
<path d="M3101 1741 c-9 -16 -10 -26 -2 -34 13 -13 25 12 19 40 -3 16 -5 15
-17 -6z"/>
<path d="M1670 1711 c0 -6 4 -13 10 -16 6 -3 7 1 4 9 -7 18 -14 21 -14 7z"/>
<path d="M3006 1681 c-4 -5 -2 -12 3 -15 5 -4 12 -2 15 3 4 5 2 12 -3 15 -5 4
-12 2 -15 -3z"/>
<path d="M1290 1609 c0 -11 4 -18 10 -14 5 3 7 12 3 20 -7 21 -13 19 -13 -6z"/>
<path d="M2216 1554 c-3 -8 -2 -12 4 -9 6 3 10 -1 10 -9 0 -19 14 -21 29 -3 8
10 7 17 -1 25 -17 17 -35 15 -42 -4z"/>
<path d="M1360 1538 c0 -9 5 -20 10 -23 13 -8 13 5 0 25 -8 13 -10 13 -10 -2z"/>
<path d="M3100 1540 c0 -5 7 -10 15 -10 8 0 15 5 15 10 0 6 -7 10 -15 10 -8 0
-15 -4 -15 -10z"/>
<path d="M1332 1490 c0 -19 2 -27 5 -17 2 9 2 25 0 35 -3 9 -5 1 -5 -18z"/>
<path d="M1410 1476 c0 -8 -5 -16 -11 -18 -9 -3 -8 -16 4 -48 l15 -45 1 63 c1
34 -1 62 -4 62 -3 0 -5 -6 -5 -14z"/>
<path d="M2150 1460 c0 -5 -7 -10 -15 -10 -8 0 -15 -4 -15 -10 0 -5 9 -10 20
-10 13 0 20 7 20 20 0 11 -2 20 -5 20 -3 0 -5 -4 -5 -10z"/>
<path d="M2177 1463 c-12 -11 -8 -23 8 -23 8 0 15 7 15 15 0 16 -12 20 -23 8z"/>
<path d="M2066 1451 c-6 -10 22 -37 29 -29 8 7 -5 38 -15 38 -5 0 -11 -4 -14
-9z"/>
<path d="M2165 1365 c-49 -42 -109 -88 -132 -103 -24 -15 -43 -30 -43 -34 0
-4 21 -10 48 -13 72 -10 77 -12 61 -31 -10 -13 -10 -17 0 -23 10 -7 10 -14 -3
-39 -8 -17 -21 -32 -28 -35 -10 -4 -10 -7 0 -18 11 -12 16 -10 33 10 10 13 19
34 19 48 0 16 7 27 20 30 11 3 20 12 20 19 0 19 10 18 26 -3 12 -17 13 -16 14
5 0 12 1 22 3 22 1 1 31 3 67 7 36 3 69 9 75 14 5 5 23 9 39 9 36 0 166 40
166 51 0 6 -281 159 -292 159 -2 0 -43 -34 -93 -75z"/>
<path d="M2950 1365 c0 -8 7 -15 15 -15 8 0 15 7 15 15 0 8 -7 15 -15 15 -8 0
-15 -7 -15 -15z"/>
<path d="M2520 1340 c0 -11 7 -20 15 -20 8 0 15 6 15 14 0 8 -7 16 -15 20 -10
4 -15 -1 -15 -14z"/>
<path d="M1490 1340 c-8 -5 -12 -12 -9 -15 8 -8 39 5 39 16 0 11 -11 11 -30
-1z"/>
<path d="M2556 1324 c-4 -9 -4 -19 -1 -22 2 -3 7 3 11 12 4 9 4 19 1 22 -2 3
-7 -3 -11 -12z"/>
<path d="M1700 1275 c0 -8 -4 -15 -10 -15 -5 0 -10 5 -10 11 0 5 -4 7 -10 4
-5 -3 -10 -11 -10 -16 0 -6 4 -8 9 -5 5 3 11 -1 15 -9 7 -20 32 -19 40 1 9 24
7 31 -9 38 -9 3 -15 0 -15 -9z"/>
<path d="M1848 1283 c7 -3 16 -2 19 1 4 3 -2 6 -13 5 -11 0 -14 -3 -6 -6z"/>
<path d="M1755 1181 c-8 -14 3 -33 16 -26 5 4 9 -2 10 -12 0 -10 3 -13 6 -6 6
17 -23 58 -32 44z"/>
<path d="M1952 1156 c-10 -23 -10 -24 24 -13 19 6 34 14 34 19 0 5 -5 6 -10 3
-6 -4 -17 -2 -24 4 -10 8 -15 5 -24 -13z"/>
<path d="M2505 1131 c-3 -5 -1 -12 5 -16 5 -3 10 1 10 9 0 18 -6 21 -15 7z"/>
<path d="M975 1180 c-3 -5 1 -10 10 -10 9 0 13 5 10 10 -3 6 -8 10 -10 10 -2
0 -7 -4 -10 -10z"/>
<path d="M938 1076 c-115 -93 -136 -126 -93 -143 11 -4 32 13 68 52 101 114
116 165 25 91z"/>
<path d="M1830 701 c-5 -11 -11 -41 -13 -68 -2 -42 1 -48 19 -51 33 -5 54 24
54 73 0 34 -5 47 -19 55 -26 14 -29 13 -41 -9z"/>
<path d="M2341 644 c0 -11 3 -14 6 -6 3 7 2 16 -1 19 -3 4 -6 -2 -5 -13z"/>
<path d="M2400 551 c0 -37 3 -89 6 -115 6 -40 10 -46 30 -46 12 0 25 3 27 8
12 21 -37 222 -55 222 -4 0 -8 -31 -8 -69z"/>
</g>
</svg>
